# AST/ASF file generated using VICON BodyLanguage
# -----------------------------------------------
:version 1.10
:name VICON
:units
  mass 1.0
  length 0.45
  angle deg
:documentation
   .ast/.asf automatically generated from VICON data using
   VICON BodyBuilder and BodyLanguage model FoxedUp or BRILLIANT.MOD
:root
   order TX TY TZ RX RY RZ
   axis XYZ
   position 0 0 0  
   orientation 0 0 0 
:bonedata
  begin
     id 1 
     name lhipjoint
     direction 0.662698 -0.695252 0.27831 
     length 2.53073 
     axis 0 0 0  XYZ
  end
  begin
     id 2 
     name lfemur
     direction 0.34202 -0.939693 0  
     length 7.16147  
     axis 0 0 20  XYZ
    dof rx ry rz
    limits (-160.0 20.0)
           (-70.0 70.0)
           (-60.0 70.0)
  end
  begin
     id 3 
     name ltibia
     direction 0.34202 -0.939693 0   
     length 7.63967   
     axis 0 0 20   XYZ
    dof rx
    limits (-10.0 170.0)
  end
  begin
     id 4 
     name lfoot
     direction 0.0938457 -0.257721 0.961651   
     length 1.89793   
     axis -90 7.62852e-016 20   XYZ
    dof rx rz
    limits (-45.0 90.0)
           (-70.0 20.0)
  end
  begin
     id 5 
     name ltoes
     direction -0.00116841 -0.0030592 0.999995   
     length 0.955649   
     axis -90 7.62852e-016 20   XYZ
    dof rx
    limits (-90.0 20.0)
  end
  begin
     id 6 
     name rhipjoint
     direction -0.649445 -0.705948 0.282592   
     length 2.49238  
     axis 0 0 0  XYZ 
  end
  begin
     id 7 
     name rfemur
     direction -0.34202 -0.939693 0   
     length 6.90728   
     axis 0 0 -20   XYZ
    dof rx ry rz
    limits (-160.0 20.0)
           (-70.0 70.0)
           (-70.0 60.0)
  end
  begin
     id 8 
     name rtibia
     direction -0.34202 -0.939693 0   
     length 7.72868   
     axis 0 0 -20   XYZ
    dof rx
    limits (-10.0 170.0)
 end
 begin
     id 9 
     name rfoot
     direction -0.0920068 -0.252865 0.963117   
     length 1.97476  
     axis -90 -7.62852e-016 -20   XYZ
    dof rx rz
    limits (-45.0 90.0)
           (-20.0 70.0)
  end
  begin
     id 10 
     name rtoes
     direction 0.000391322 0.00230649 0.999997   
     length 0.992641   
     axis -90 -7.62852e-016 -20   XYZ
    dof rx
    limits (-90.0 20.0)
  end
  begin
     id 11 
     name lowerback
     direction -0.00875327 0.998321 -0.0572635   
     length 2.20024   
     axis 0 0 0   XYZ
    dof rx ry rz
    limits (-20.0 45.0)
           (-30.0 30.0)
           (-30.0 30.0)
  end
  begin
     id 12 
     name upperback
     direction 0.00753931 0.999972 -0.000360425   
     length 2.20538   
     axis 0 0 0   XYZ
    dof rx ry rz
    limits (-20.0 45.0)
           (-30.0 30.0)
           (-30.0 30.0)
  end
  begin
     id 13 
     name thorax
     direction 0.0117767 0.999601 0.0256663   
     length 2.21508   
     axis 0 0 0   XYZ
    dof rx ry rz
    limits (-20.0 45.0)
           (-30.0 30.0)
           (-30.0 30.0)
  end
  begin
     id 14 
     name lowerneck
     direction 0.060228 0.994909 0.0807986   
     length 1.7607   
     axis 0 0 0   XYZ
    dof rx ry rz
    limits (-20.0 45.0)
           (-30.0 30.0)
           (-30.0 30.0)
  end
  begin
     id 15 
     name upperneck
     direction -0.0563647 0.959594 -0.275685   
     length 1.75612   
     axis 0 0 0   XYZ
    dof rx ry rz
    limits (-20.0 45.0)
           (-30.0 30.0)
           (-30.0 30.0)
  end
  begin
     id 16
     name head
     direction -0.0161544 0.99458 -0.102714  
     length 1.79288  
     axis 0 0 0   XYZ
    dof rx ry rz
    limits (-20.0 45.0)
           (-30.0 30.0)
           (-30.0 30.0)
  end
  begin
     id 17 
     name lclavicle
     direction 0.93913 0.332189 -0.087669  
     length 3.52087  
     axis 0 0 0   XYZ
    dof ry rz
    limits (-20.0 10.0)
           (0.0 20.0)
  end
  begin
     id 18 
     name lhumerus
     direction 1 -4.48974e-011 -2.70836e-027   
     length 5.35289   
     axis -180 -30 -90   XYZ
    dof rx ry rz
    limits (-60.0 90.0)
           (-90.0 90.0)
           (-90.0 90.0)
  end
  begin
     id 19
     name lradius
     direction 1 -4.48961e-011 -9.76021e-027   
     length 3.27727   
     axis -180 -30 -90   XYZ
    dof rx
    limits (-10.0 170.0)
  end
  begin
     id 20
     name lwrist
     direction 1 -4.49103e-011 -2.23668e-026   
     length 1.63864   
     axis 1.44924e-014 90 90   XYZ
    dof ry
    limits (-180.0 0.0)
 end
  begin
     id 21 
     name lhand
     direction 1 3.0697e-005 0.000161777   
     length 0.54443   
     axis 2.85318e-014 90 90   XYZ
    dof rx rz
    limits (-90.0 90.0)
           (-45.0 45.0)
  end
  begin
     id 22 
     name lfingers
     direction 1 -4.49027e-011 -8.9447e-026   
     length 0.438912   
     axis 5.70628e-014 90 90   XYZ
    dof rx
    limits (0.0 90.0)
  end
  begin
     id 23
     name lthumb
     direction 0.707058 2.6516e-005 0.707156   
     length 0.630274   
     axis -90 45 -3.53137e-014   XYZ
    dof rx rz
    limits (-45.0 45.0)
           (-45.0 45.0)
  end
  begin
     id 24 
     name rclavicle
     direction -0.95274 0.284984 -0.105215   
     length 3.43401  
     axis 0 0 0   XYZ 
    dof ry rz
    limits (-10.0 20.0)
           (-20.0 0.0)
  end
  begin
     id 25 
     name rhumerus
     direction -0.999999 -0.000575019 -0.00106829  
     length 5.52077   
     axis -180 30 90   XYZ
    dof rx ry rz
    limits (-90.0 60.0)
           (-90.0 90.0)
           (-90.0 90.0)
  end
  begin
     id 26 
     name rradius
     direction -1 -4.4879e-011 -6.35415e-027   
     length 3.32364   
     axis -180 30 90   XYZ
    dof rx
    limits (-10.0 170.0)
  end
  begin
     id 27 
     name rwrist
     direction -1 -4.49048e-011 -9.98542e-027   
     length 1.66182   
     axis 6.32482e-015 -90 -90   XYZ
    dof ry
    limits (-180.0 0.0)
  end
  begin
     id 28
     name rhand
     direction -1 -4.48978e-011 -1.99771e-026   
     length 0.732235   
     axis 1.27479e-014 -90 -90   XYZ
    dof rx rz
    limits (-90.0 90.0)
           (-45.0 45.0)
  end
  begin
     id 29
     name rfingers
     direction -1 -4.49144e-011 -3.99245e-026   
     length 0.590347   
     axis 2.5496e-014 -90 -90   XYZ
    dof rx
    limits (0.0 90.0)
  end
  begin
     id 30
     name rthumb
     direction -0.707107 -6.35121e-011 0.707107   
     length 0.847624   
     axis -90 -45 -2.82974e-014   XYZ
    dof rx rz
    limits (-45.0 45.0)
           (-45.0 45.0)
  end
:hierarchy
  begin
    root lhipjoint rhipjoint lowerback
    lhipjoint lfemur
    lfemur ltibia
    ltibia lfoot
    lfoot ltoes
    rhipjoint rfemur
    rfemur rtibia
    rtibia rfoot
    rfoot rtoes
    lowerback upperback
    upperback thorax
    thorax lowerneck lclavicle rclavicle
    lowerneck upperneck
    upperneck head
    lclavicle lhumerus
    lhumerus lradius
    lradius lwrist
    lwrist lhand lthumb
    lhand lfingers
    rclavicle rhumerus
    rhumerus rradius
    rradius rwrist
    rwrist rhand rthumb
    rhand rfingers
  end

#!OML:ASF G:\Work\Work\Patient Classification 1\Elijah\terrain1\Elijah.ASF
:FULLY-SPECIFIED
:DEGREES
16
root 16.2172 23.6726 -7.07801 9.68981 -4.30164 -3.91036
lowerback 5.75401 0.265998 -0.504183
upperback -1.15248 0.244385 -1.68429
thorax -4.41594 0.111401 -1.48271
lowerneck -13.7869 15.7036 11.4971
upperneck 33.3019 25.8486 -13.6888
head 18.4316 10.4673 -2.37697
rclavicle -2.26615e-014 3.4191e-014
rhumerus -38.9287 -0.728621 -87.4385
rradius 34.0775
rwrist -3.21146
rhand -13.2691 21.9711
rfingers 7.12502
rthumb 12.8338 -7.61441
lclavicle -2.26615e-014 3.4191e-014
lhumerus -25.1434 29.9574 69.956
lradius 25.8541
lwrist -0.255314
lhand -14.9785 25.1177
lfingers 7.12502
lthumb 11.1855 54.7996
rfemur -10.4475 -6.17571 24.69
rtibia 52.8015
rfoot 17.0962 -1.98432
rtoes -9.23455
lfemur -23.8565 3.65849 -21.8726
ltibia 33.7201
lfoot -18.7206 -2.23722
ltoes -5.62972
17
root 16.23 23.7146 -7.00348 9.50375 -4.55877 -3.5614
lowerback 5.71188 0.445671 -0.393421
upperback -0.690893 0.478709 -2.23074
thorax -3.90298 0.22133 -2.12785
lowerneck -15.7808 15.6409 10.9895
upperneck 34.1046 25.5706 -12.7836
head 19.0174 10.2116 -1.84029
rclavicle 5.96354e-015 3.02153e-014
rhumerus -38.4587 -1.59119 -87.6969
rradius 34.5935
rwrist -3.58423
rhand -13.6461 22.0224
rfingers 7.12502
rthumb 12.4703 -7.58551
lclavicle 5.96354e-015 3.02153e-014
lhumerus -23.7489 29.2355 70.3246
lradius 25.5551
lwrist -0.72373
lhand -14.4403 23.9056
lfingers 7.12502
lthumb 11.7046 53.5587
rfemur -12.1281 -6.67762 24.1629
rtibia 56.2999
rfoot 15.0634 -0.802778
rtoes -12.4248
lfemur -23.0198 3.74767 -22.2473
ltibia 32.9414
lfoot -17.9771 -2.59418
ltoes -3.14353
18
root 16.2431 23.7599 -6.92374 9.1841 -4.52329 -3.05915
lowerback 5.501 0.353324 -0.647253
upperback -0.35712 0.338788 -2.53132
thorax -3.44338 0.156821 -2.27813
lowerneck -14.5544 15.4581 11.8768
upperneck 33.1713 25.2953 -13.8297
head 18.5468 10.2227 -2.57839
rclavicle 9.93923e-015 2.8625e-014
rhumerus -38.1636 -1.92121 -87.7692
rradius 34.7237
rwrist -3.83182
rhand -13.4812 21.7747
rfingers 7.12502
rthumb 12.6293 -7.82348
lclavicle 9.93923e-015 2.8625e-014
lhumerus -23.2288 29.2016 70.3634
lradius 25.2547
lwrist -1.21209
lhand -14.6035 23.782
lfingers 7.12502
lthumb 11.5472 53.444
rfemur -13.6387 -7.55827 23.4811
rtibia 59.8229
rfoot 15.2862 -0.254282
rtoes -9.48476
lfemur -22.0225 3.58009 -22.732
ltibia 32.1787
lfoot -17.2153 -3.06604
ltoes -1.1453
19
root 16.2436 23.8058 -6.84966 8.94754 -4.68291 -2.82201
lowerback 5.76611 0.394839 -1.04177
upperback -0.183164 0.363673 -2.58202
thorax -3.41397 0.176236 -2.11196
lowerneck -12.7833 15.3738 13.0668
upperneck 31.5007 25.2835 -15.5959
head 17.826 10.3683 -3.60855
rclavicle -1.25234e-014 3.18055e-015
rhumerus -37.9326 -2.36702 -87.4963
rradius 34.6674
rwrist -3.79495
rhand -13.4722 21.7623
rfingers 7.12502
rthumb 12.638 -7.83538
lclavicle -1.25234e-014 3.18055e-015
lhumerus -22.5184 29.5576 70.5937
lradius 24.6284
lwrist -2.07453
lhand -14.7646 24.0576
lfingers 7.12502
lthumb 11.3918 53.7282
rfemur -15.2908 -8.19957 23.1872
rtibia 63.3376
rfoot 15.2563 0.649367
rtoes -9.09057
lfemur -21.1235 3.7746 -22.9453
ltibia 31.341
lfoot -16.3652 -3.29762
ltoes -0.978422
20
root 16.2408 23.8539 -6.78317 8.86369 -4.86359 -2.68238
lowerback 5.76237 0.279274 -1.66793
upperback -0.286838 0.171817 -2.35843
thorax -3.52716 0.0939656 -1.51284
lowerneck -15.2637 15.7315 10.9904
upperneck 34.098 25.8792 -13.1039
head 19.0274 10.3236 -1.93942
rclavicle -1.98785e-015 1.59028e-014
rhumerus -38.3945 -1.86353 -87.2253
rradius 34.9308
rwrist -3.88202
rhand -13.4806 21.8889
rfingers 7.12502
rthumb 12.6298 -7.70928
lclavicle -1.98785e-015 1.59028e-014
lhumerus -22.853 29.9644 70.5372
lradius 24.3678
lwrist -2.39331
lhand -14.9094 24.6411
lfingers 7.12502
lthumb 11.2522 54.3194
rfemur -17.1405 -8.78037 23.0594
rtibia 66.7983
rfoot 15.881 0.828008
rtoes 6.56105
lfemur -20.358 4.25204 -23.0989
ltibia 30.3315
lfoot -15.3749 -3.56517
ltoes -1.84683
21
root 16.2353 23.9033 -6.73321 8.90151 -4.61133 -2.44804
lowerback 5.73006 0.057959 -2.08562
upperback -0.221815 -0.146728 -2.3127
thorax -3.44514 -0.0567144 -1.20284
lowerneck -13.771 15.7961 11.7731
upperneck 32.9118 26.0912 -14.3878
head 18.4885 10.5226 -2.64426
rclavicle 5.96354e-016 -1.27222e-014
rhumerus -38.2336 -1.84056 -87.0732
rradius 34.936
rwrist -3.80116
rhand -13.5113 21.7674
rfingers 7.12502
rthumb 12.6003 -7.83257
lclavicle 5.96354e-016 -1.27222e-014
lhumerus -22.6609 30.1191 70.6503
lradius 24.1389
lwrist -2.66298
lhand -15.0467 25.0089
lfingers 7.12502
lthumb 11.1197 54.6942
rfemur -19.2035 -9.70492 23.0055
rtibia 70.2972
rfoot 13.2576 1.2163
rtoes -9.14339
lfemur -19.7715 4.47445 -23.2968
ltibia 29.2572
lfoot -14.206 -4.12073
ltoes -3.14337
22
root 16.2469 23.9772 -6.64301 8.39928 -4.90913 -2.29311
lowerback 6.01511 0.325943 -1.6617
upperback 0.3531 0.228288 -2.86737
thorax -3.00511 0.117017 -2.04466
lowerneck -15.617 15.726 11.342
upperneck 33.5459 25.7545 -13.5118
head 18.9405 10.2684 -2.15956
rclavicle -1.47101e-014 2.06736e-014
rhumerus -37.3845 -3.35515 -87.1947
rradius 34.5864
rwrist -3.37355
rhand -13.8321 21.7561
rfingers 7.12502
rthumb 12.291 -7.86271
lclavicle -1.47101e-014 2.06736e-014
lhumerus -21.1064 29.3481 71.0981
lradius 23.7832
lwrist -3.44322
lhand -14.4306 25.3133
lfingers 7.12502
lthumb 11.7139 54.9658
rfemur -20.4326 -10.3583 22.6956
rtibia 73.5713
rfoot 15.0591 1.25993
rtoes -3.11023
lfemur -18.3462 4.73958 -23.4405
ltibia 28.0757
lfoot -13.2504 -4.23771
ltoes -4.2423
23
root 16.2552 24.0414 -6.5651 8.08798 -4.94127 -2.02861
lowerback 7.45013 -0.363475 -3.54351
upperback -0.984007 -0.891328 -1.52374
thorax -5.18023 -0.36028 0.510981
lowerneck -11.7152 15.8614 11.3225
upperneck 32.9684 26.7335 -14.9993
head 18.2236 10.8078 -2.85637
rclavicle -6.16232e-015 2.14687e-014
rhumerus -39.6577 0.425507 -86.4092
rradius 34.5938
rwrist -3.80189
rhand -13.9358 22.105
rfingers 7.12502
rthumb 12.191 -7.51972
lclavicle -6.16232e-015 2.14687e-014
lhumerus -25.4431 31.1595 70.0752
lradius 24.532
lwrist -3.49711
lhand -13.9994 25.7458
lfingers 7.12502
lthumb 12.1297 55.3742
rfemur -21.9518 -11.3639 22.34
rtibia 76.8359
rfoot 14.3821 1.30829
rtoes -3.2886
lfemur -17.2998 4.83222 -23.6907
ltibia 26.8347
lfoot -12.0299 -4.46802
ltoes -5.4614
